<svg width="225" height="60" viewBox="0 0 225 60" fill="none" xmlns="http://www.w3.org/2000/svg">
<rect y="4.15417" width="5.53886" height="55.3886" rx="2.76943" fill="#57FF40"/>
<rect x="22.1554" y="4.15417" width="5.53886" height="55.3886" rx="2.76943" fill="#57FF40"/>
<rect x="44.3109" y="4.15417" width="5.53886" height="55.3886" rx="2.76943" fill="#57FF40"/>
<rect x="11.0778" width="5.53886" height="55.3886" rx="2.76943" fill="#186A2A"/>
<rect x="33.2332" width="5.53886" height="55.3886" rx="2.76943" fill="#186A2A"/>
<path d="M78.192 21.696V24.064H72.112V44H69.2V24.064H63.088V21.696H78.192ZM84.6885 29.312C85.2005 28.3093 85.9258 27.5307 86.8645 26.976C87.8245 26.4213 88.9872 26.144 90.3525 26.144V29.152H89.5845C86.3205 29.152 84.6885 30.9227 84.6885 34.464V44H81.7765V26.464H84.6885V29.312ZM92.626 35.168C92.626 33.376 92.9887 31.808 93.714 30.464C94.4393 29.0987 95.4313 28.0427 96.69 27.296C97.97 26.5493 99.3887 26.176 100.946 26.176C102.482 26.176 103.815 26.5067 104.946 27.168C106.077 27.8293 106.919 28.6613 107.474 29.664V26.464H110.418V44H107.474V40.736C106.898 41.76 106.034 42.6133 104.882 43.296C103.751 43.9573 102.429 44.288 100.914 44.288C99.3567 44.288 97.9487 43.904 96.69 43.136C95.4313 42.368 94.4393 41.2907 93.714 39.904C92.9887 38.5173 92.626 36.9387 92.626 35.168ZM107.474 35.2C107.474 33.8773 107.207 32.7253 106.674 31.744C106.141 30.7627 105.415 30.016 104.498 29.504C103.602 28.9707 102.61 28.704 101.522 28.704C100.434 28.704 99.442 28.96 98.546 29.472C97.65 29.984 96.9353 30.7307 96.402 31.712C95.8687 32.6933 95.602 33.8453 95.602 35.168C95.602 36.512 95.8687 37.6853 96.402 38.688C96.9353 39.6693 97.65 40.4267 98.546 40.96C99.442 41.472 100.434 41.728 101.522 41.728C102.61 41.728 103.602 41.472 104.498 40.96C105.415 40.4267 106.141 39.6693 106.674 38.688C107.207 37.6853 107.474 36.5227 107.474 35.2ZM123.883 26.144C126.016 26.144 127.744 26.7947 129.067 28.096C130.39 29.376 131.051 31.232 131.051 33.664V44H128.171V34.08C128.171 32.3307 127.734 30.9973 126.859 30.08C125.984 29.1413 124.79 28.672 123.275 28.672C121.739 28.672 120.512 29.152 119.595 30.112C118.699 31.072 118.251 32.4693 118.251 34.304V44H115.339V26.464H118.251V28.96C118.827 28.064 119.606 27.3707 120.587 26.88C121.59 26.3893 122.688 26.144 123.883 26.144ZM142.016 44.288C140.672 44.288 139.466 44.064 138.4 43.616C137.333 43.1467 136.49 42.5067 135.872 41.696C135.253 40.864 134.912 39.9147 134.848 38.848H137.856C137.941 39.7227 138.346 40.4373 139.072 40.992C139.818 41.5467 140.789 41.824 141.984 41.824C143.093 41.824 143.968 41.5787 144.608 41.088C145.248 40.5973 145.568 39.9787 145.568 39.232C145.568 38.464 145.226 37.8987 144.544 37.536C143.861 37.152 142.805 36.7787 141.376 36.416C140.074 36.0747 139.008 35.7333 138.176 35.392C137.365 35.0293 136.661 34.5067 136.064 33.824C135.488 33.12 135.2 32.2027 135.2 31.072C135.2 30.176 135.466 29.3547 136 28.608C136.533 27.8613 137.29 27.2747 138.272 26.848C139.253 26.4 140.373 26.176 141.632 26.176C143.573 26.176 145.141 26.6667 146.336 27.648C147.53 28.6293 148.17 29.9733 148.256 31.68H145.344C145.28 30.7627 144.906 30.0267 144.224 29.472C143.562 28.9173 142.666 28.64 141.536 28.64C140.49 28.64 139.658 28.864 139.04 29.312C138.421 29.76 138.112 30.3467 138.112 31.072C138.112 31.648 138.293 32.128 138.656 32.512C139.04 32.8747 139.509 33.1733 140.064 33.408C140.64 33.6213 141.429 33.8667 142.432 34.144C143.69 34.4853 144.714 34.8267 145.504 35.168C146.293 35.488 146.965 35.9787 147.52 36.64C148.096 37.3013 148.394 38.1653 148.416 39.232C148.416 40.192 148.149 41.056 147.616 41.824C147.082 42.592 146.325 43.2 145.344 43.648C144.384 44.0747 143.274 44.288 142.016 44.288ZM159.663 28.864H155.983V44H153.071V28.864H150.799V26.464H153.071V25.216C153.071 23.2533 153.572 21.824 154.575 20.928C155.599 20.0107 157.231 19.552 159.47 19.552V21.984C158.191 21.984 157.284 22.24 156.751 22.752C156.239 23.2427 155.983 24.064 155.983 25.216V26.464H159.663V28.864ZM179.058 34.56C179.058 35.1147 179.026 35.7013 178.962 36.32H164.946C165.052 38.048 165.639 39.4027 166.706 40.384C167.794 41.344 169.106 41.824 170.642 41.824C171.9 41.824 172.946 41.536 173.778 40.96C174.631 40.3627 175.228 39.5733 175.57 38.592H178.706C178.236 40.2773 177.298 41.6533 175.89 42.72C174.482 43.7653 172.732 44.288 170.642 44.288C168.978 44.288 167.484 43.9147 166.162 43.168C164.86 42.4213 163.836 41.3653 163.09 40C162.343 38.6133 161.97 37.0133 161.97 35.2C161.97 33.3867 162.332 31.7973 163.058 30.432C163.783 29.0667 164.796 28.0213 166.098 27.296C167.42 26.5493 168.935 26.176 170.642 26.176C172.306 26.176 173.778 26.5387 175.058 27.264C176.338 27.9893 177.319 28.992 178.002 30.272C178.706 31.5307 179.058 32.96 179.058 34.56ZM176.05 33.952C176.05 32.8427 175.804 31.8933 175.314 31.104C174.823 30.2933 174.151 29.6853 173.298 29.28C172.466 28.8533 171.538 28.64 170.514 28.64C169.042 28.64 167.783 29.1093 166.738 30.048C165.714 30.9867 165.127 32.288 164.978 33.952H176.05ZM185.814 29.312C186.326 28.3093 187.051 27.5307 187.99 26.976C188.95 26.4213 190.112 26.144 191.478 26.144V29.152H190.71C187.446 29.152 185.814 30.9227 185.814 34.464V44H182.902V26.464H185.814V29.312ZM197.751 21.696V44H194.839V21.696H197.751ZM206.266 28.864V39.2C206.266 40.0533 206.447 40.6613 206.81 41.024C207.173 41.3653 207.802 41.536 208.698 41.536H210.842V44H208.218C206.597 44 205.381 43.6267 204.57 42.88C203.759 42.1333 203.354 40.9067 203.354 39.2V28.864H201.082V26.464H203.354V22.048H206.266V26.464H210.842V28.864H206.266ZM218.146 21.696L217.794 37.696H215.362L215.01 21.696H218.146ZM216.706 44.192C216.152 44.192 215.682 44 215.298 43.616C214.914 43.232 214.722 42.7627 214.722 42.208C214.722 41.6533 214.914 41.184 215.298 40.8C215.682 40.416 216.152 40.224 216.706 40.224C217.24 40.224 217.688 40.416 218.05 40.8C218.434 41.184 218.626 41.6533 218.626 42.208C218.626 42.7627 218.434 43.232 218.05 43.616C217.688 44 217.24 44.192 216.706 44.192Z" fill="black"/>
</svg>
