<svg width="597" height="534" viewBox="0 0 597 534" fill="none" xmlns="http://www.w3.org/2000/svg">
<path fill-rule="evenodd" clip-rule="evenodd" d="M298.713 100.132C439.276 121.253 537.3 193.015 537.3 307.592C537.3 444.924 415.523 302.232 331.553 382.301C247.583 462.37 68.6832 464.64 60.1255 307.592C52.1144 160.574 158.149 79.0112 298.713 100.132Z" fill="#01FD44" fill-opacity="0.8"/>
<path d="M380.991 132.549C380.773 132.66 377.783 135.335 374.358 138.49C370.933 141.645 367.329 144.892 366.339 145.704C365.369 146.516 362.557 148.915 360.102 151.036C352.083 157.973 348.539 160.723 344.044 163.435C342.916 164.117 341.094 165.206 340.005 165.87C337.015 167.697 329.511 170.999 325.155 172.42C322.145 173.379 315.948 175.095 312.978 175.759C311.83 176.018 310.048 176.442 309.018 176.7C306.543 177.328 296.504 178.933 293.376 179.228C291.851 179.357 287.733 179.431 282.684 179.431C274.606 179.412 271.022 179.246 263.775 178.545C254.073 177.623 235.877 177.125 226.848 177.53C215.582 178.047 202.633 180.372 191.01 183.988C187.961 184.929 179.585 187.881 177.249 188.822C174.893 189.781 165.428 194.172 164.28 194.837C163.686 195.187 162.082 196.091 160.736 196.848C155.152 199.947 146.717 205.574 140.678 210.205C134.283 215.15 128.897 220.021 124.7 224.689C122.264 227.419 118.186 232.77 116.285 235.74C115.315 237.253 114.087 239.135 113.592 239.891C113.077 240.648 112.048 242.272 111.315 243.489C110.582 244.707 109.731 246.035 109.434 246.441C108.642 247.53 107.454 250.15 107.315 251.128C107.256 251.607 106.979 252.253 106.702 252.604C105.989 253.489 105.969 254.43 106.543 257.05C107.533 261.533 112.642 277.327 117.215 289.983C119.077 295.149 120.918 300.26 121.274 301.33C121.651 302.4 122.264 303.987 122.641 304.872C123.017 305.758 123.492 306.994 123.69 307.64C124.106 308.968 126.739 315.739 127.591 317.658C127.927 318.359 128.383 319.522 128.64 320.241C129.056 321.44 130.283 324.485 131.947 328.544C132.323 329.448 132.897 330.832 133.194 331.588C134.897 335.85 144.143 357.676 145.094 359.65C145.411 360.315 145.668 360.942 145.668 361.053C145.668 361.163 146.5 363.082 147.529 365.296C148.539 367.51 149.826 370.388 150.361 371.717C150.915 373.027 151.786 375.019 152.281 376.145C152.796 377.252 153.746 379.337 154.38 380.757C157.706 388.229 157.528 387.897 158.716 388.359C159.31 388.598 159.409 388.58 159.746 388.303C160.201 387.916 160.637 386.698 160.993 384.816C161.31 383.156 163.587 376.957 164.518 375.241C166.478 371.606 169.883 366.44 171.368 364.798L171.943 364.171L172.339 364.89C172.556 365.296 173.705 367.953 174.873 370.794C176.041 373.636 177.942 378.119 179.09 380.757C180.239 383.396 181.427 386.182 181.724 386.956C182.021 387.731 182.536 388.912 182.872 389.613C183.209 390.296 183.486 390.942 183.486 391.015C183.486 391.108 184.08 392.455 184.793 394.004C186.377 397.418 188.099 401.347 188.436 402.344C188.575 402.75 188.99 403.709 189.367 404.465C189.743 405.222 190.258 406.347 190.515 406.956C190.753 407.565 191.644 409.558 192.495 411.384C193.327 413.211 194.218 415.24 194.495 415.886C195.069 417.251 195.465 417.786 196.198 418.192C196.93 418.598 197.485 418.561 197.821 418.063C197.98 417.842 198.514 416.2 198.989 414.428C199.999 410.757 201.346 407.141 202.593 404.834C203.84 402.547 206.098 398.912 207.305 397.288C207.88 396.514 208.79 395.296 209.325 394.595C210.612 392.86 211.463 391.901 214.176 389.06C218.077 384.982 224.611 378.894 228.036 376.163C232.63 372.51 233.283 372.012 234.986 370.831C235.817 370.259 236.926 369.447 237.461 369.023C238.55 368.137 243.678 364.927 247.143 362.953C249.717 361.477 256.845 357.971 258.429 357.381C259.36 357.049 259.894 356.828 263.438 355.407C268.111 353.488 280.169 350.075 286.565 348.82C287.773 348.599 289.456 348.23 290.327 348.027C292.564 347.51 301.336 346.366 304.801 346.163C309.949 345.85 325.056 345.721 328.224 345.961C332.679 346.293 336.065 346.68 340.797 347.344C343.193 347.695 346.282 348.101 347.648 348.285C349.034 348.451 350.994 348.746 352.004 348.931C353.033 349.134 354.756 349.374 355.845 349.484C356.934 349.595 358.716 349.835 359.805 350.038C365.29 351.034 374.635 351.994 381.288 352.27C397.108 352.898 409.661 350.333 424.749 343.378C426.056 342.787 427.184 342.289 427.283 342.289C427.481 342.289 432.134 339.78 432.867 339.263C433.204 339.023 434.53 338.248 435.837 337.547C437.857 336.422 441.559 334.023 444.787 331.717C448.549 329.042 455.34 323.046 458.092 319.964C464.151 313.193 468.368 307.289 473.497 298.396C475.952 294.116 476.15 293.563 475.655 292.326C475.457 291.847 474.744 290.039 474.051 288.323C472.467 284.338 470.527 279.614 469.873 278.175C469.299 276.921 461.834 258.323 461.161 256.496C460.924 255.832 460.052 253.747 459.221 251.847C457.597 248.139 457.102 246.921 455.34 242.382C453.043 236.478 449.756 228.434 447.42 222.917C445.618 218.729 442.708 211.589 442.173 210.095C441.916 209.375 441.44 208.268 441.104 207.604C440.767 206.94 440.49 206.257 440.49 206.091C440.49 205.907 440.312 205.408 440.094 204.984C439.876 204.541 439.203 203.01 438.609 201.552C437.995 200.095 436.906 197.604 436.193 196.017C435.481 194.431 434.55 192.254 434.154 191.183C433.738 190.113 432.966 188.324 432.412 187.217C431.263 184.874 426.887 175.114 425.343 171.442C424.056 168.398 422.848 165.759 422.175 164.523C421.601 163.453 420.274 162.346 419.581 162.346C418.849 162.346 418.096 162.973 412.513 168.195C407.404 172.955 403.207 176.608 402.85 176.608C402.751 176.608 402.672 176.442 402.672 176.239C402.672 176.036 402.494 175.519 402.276 175.095C402.078 174.652 401.306 172.881 400.593 171.165C399.86 169.431 398.732 166.829 398.078 165.353C397.405 163.877 396.593 161.922 396.237 161.018C395.881 160.095 394.91 157.9 394.059 156.128C392.614 153.066 390.495 148.361 387.723 141.922C384.456 134.376 384.317 134.136 383.248 133.195C382.238 132.31 381.724 132.162 380.991 132.549ZM383.129 139.081C383.882 140.686 384.694 142.549 384.951 143.213C385.208 143.878 385.862 145.372 386.396 146.534C386.951 147.697 387.941 149.892 388.614 151.424C389.307 152.937 390.436 155.483 391.129 157.051C391.841 158.619 393.069 161.479 393.861 163.416C394.653 165.335 395.683 167.715 396.138 168.674C396.95 170.409 397.544 171.829 397.96 173.102C398.059 173.453 398.356 174.117 398.613 174.578C398.851 175.04 399.346 176.184 399.722 177.143L400.375 178.877L398.771 180.316C397.88 181.091 396.019 182.715 394.613 183.896L392.099 186.073L391.624 185.132C391.386 184.615 390.733 183.047 390.178 181.645C388.772 178.084 386.753 172.844 385.842 170.427C385.426 169.302 384.575 167.106 383.961 165.538C383.347 163.97 382.219 160.944 381.446 158.822C380.179 155.317 379.981 154.911 379.189 154.154C377.843 152.844 377.447 152.992 373.645 156.35C369.804 159.726 362.656 165.409 360.102 167.125C359.548 167.494 359.112 167.844 359.112 167.918C359.112 167.992 358.874 168.176 358.577 168.342C358.261 168.508 357.35 169.191 356.538 169.874C355.726 170.538 354.479 171.442 353.766 171.885C346.638 176.294 344.163 177.752 340.104 179.892C337.292 181.387 331.828 183.914 330.501 184.357C329.966 184.541 328.719 185.04 327.729 185.464C320.799 188.49 310.483 191.22 301.494 192.42C298.009 192.881 282.803 192.881 276.447 192.438C268.388 191.848 260.963 191.7 246.351 191.792C238.629 191.829 231.046 191.977 229.521 192.088C225.185 192.42 216.037 193.213 214.176 193.416C204.989 194.468 193.94 196.958 184.476 200.095C180.417 201.442 171.151 205.685 166.359 208.397C158.736 212.715 148.955 220.298 140.322 228.582C136.798 231.976 136.223 232.585 133.273 236.128C128.442 241.884 125.967 245.297 122.74 250.685C119.71 255.74 119.156 257.161 119.433 259.246C119.789 261.976 124.68 275.592 127.848 282.695C130.145 287.843 132.976 294.485 133.907 296.902C134.778 299.153 136.006 302.123 137.59 305.85C138.025 306.865 138.718 308.562 139.134 309.632C139.55 310.703 140.025 311.883 140.203 312.252C140.381 312.64 140.52 313.101 140.52 313.286C140.52 313.489 140.678 313.839 140.896 314.079C141.094 314.319 141.312 314.725 141.371 314.983C141.51 315.61 143.153 319.577 143.866 321.071C144.183 321.736 144.658 322.898 144.935 323.654C146.005 326.662 147.49 330.407 147.747 330.776C147.886 330.979 148.123 331.533 148.242 331.975C148.381 332.418 149.569 335.573 150.915 338.968C152.261 342.363 153.766 346.348 154.261 347.824C155.687 352.067 157.31 357.067 157.568 358.064C157.944 359.503 158.439 360.462 159.231 361.274C160.419 362.51 160.478 362.473 162.656 358.949C164.082 356.68 167.25 352.916 167.527 353.193C167.567 353.23 167.884 354.005 168.24 354.927C168.596 355.831 168.953 356.662 169.032 356.772C169.21 357.012 170.616 360.628 170.616 360.868C170.616 360.979 169.903 361.994 169.012 363.156C166.339 366.661 164.478 369.54 162.696 372.824C160.756 376.421 159.964 378.211 159.191 380.61C158.894 381.551 158.597 382.325 158.538 382.325C158.479 382.325 158.063 381.477 157.607 380.425C157.172 379.392 156.103 377.049 155.271 375.222C153.786 371.993 152.657 369.447 151.687 367.049C151.43 366.403 151.073 365.628 150.895 365.296C149.925 363.58 139.372 338.728 135.233 328.451C134.639 326.975 133.966 325.352 133.768 324.854C133.55 324.337 133.194 323.507 132.996 323.009C132.798 322.492 132.362 321.385 132.026 320.518C131.669 319.651 131.214 318.415 130.976 317.75C130.759 317.086 130.442 316.293 130.264 315.998C129.769 315.112 128.204 310.998 125.076 302.437C123.472 298.027 121.789 293.544 121.354 292.474C119.928 288.932 114.028 271.958 112.998 268.378C112.76 267.585 112.265 265.998 111.889 264.891C111.533 263.766 110.84 261.662 110.345 260.186C109.87 258.71 109.335 256.902 109.177 256.164C108.88 254.836 108.88 254.762 109.355 253.397C110.028 251.497 111.315 248.987 112.859 246.57C113.572 245.482 115.275 242.807 116.661 240.629C119.096 236.81 122.621 231.81 124.621 229.32C129.67 223.028 139.015 214.633 147.925 208.416C151.172 206.146 151.172 206.146 152.816 205.113C153.628 204.597 154.954 203.711 155.766 203.139C158.241 201.442 159.409 200.777 167.151 196.589C169.171 195.482 175.566 192.53 177.447 191.829C178.437 191.479 179.467 191.036 179.764 190.888C180.061 190.741 180.773 190.482 181.348 190.316C181.922 190.169 183.684 189.56 185.268 188.969C188.06 187.936 193.723 186.054 196.752 185.169C198.574 184.634 207.701 182.715 211.503 182.069C220.057 180.612 223.561 180.39 236.946 180.409C247.935 180.409 256.825 180.759 264.765 181.479C271.24 182.088 284.011 182.586 288.228 182.42C293.02 182.235 297.772 181.719 304.167 180.685C306.959 180.224 313.255 178.804 317.829 177.586C324.086 175.925 327.63 174.818 330.461 173.619C331.63 173.121 333.055 172.549 333.629 172.346C335.233 171.756 339.827 169.505 341.609 168.435C347.826 164.726 351.093 162.457 356.142 158.342C361.033 154.357 370.517 146.092 375.744 141.239C378.853 138.361 381.466 136.055 381.585 136.073C381.684 136.11 382.397 137.457 383.129 139.081ZM378.12 157.697C378.12 157.826 379.011 160.28 380.12 163.158C381.209 166.036 382.714 170.021 383.466 171.995C384.199 173.97 385.842 178.305 387.109 181.626C388.376 184.947 389.406 187.789 389.406 187.936C389.406 188.231 385.981 190.907 384.773 191.571L384.06 191.958L383.228 191.497C382.476 191.091 382.08 191.036 379.605 190.944C374.992 190.778 371.428 190.003 367.725 188.342C365.23 187.235 362.834 185.501 360.518 183.102C358.934 181.479 358.043 180.925 357.31 181.091C357.053 181.165 355.845 181.94 354.637 182.844C350.281 186.128 344.539 190.04 341.49 191.848C338.005 193.896 330.58 197.512 327.333 198.748C325.828 199.32 325.353 199.504 322.898 200.408C322.304 200.63 321.452 200.87 321.017 200.962C320.561 201.036 319.195 201.442 317.948 201.866C315.651 202.622 311.255 203.711 306.939 204.578C304.781 205.003 304.028 205.058 298.722 205.15C293.475 205.242 292.525 205.205 289.317 204.836C284.565 204.283 282.882 204.467 282.882 205.501C282.882 205.741 282.763 206.276 282.644 206.681L282.387 207.419H273.873C262.884 207.419 258.33 207.715 250.806 208.914C241.698 210.353 233.659 212.309 225.759 214.984C217.502 217.77 212.968 219.523 209.285 221.368C207.464 222.272 207.246 222.346 207.246 222.013C207.246 220.906 209.384 215.796 211.404 212.032C212.255 210.464 212.75 209.763 214.829 207.272C215.542 206.423 215.522 205.427 214.79 205.076C214.374 204.892 214.156 204.929 213.206 205.372C212.592 205.667 211.424 206.073 210.612 206.294C208.711 206.829 202.415 209.154 198.811 210.648C195.247 212.143 187.208 215.888 182.595 218.213C178.556 220.242 170.893 224.836 167.943 226.995C161.053 232.032 158.855 233.692 157.429 234.91C145.628 245.094 142.5 248.12 140.659 251.109C140.243 251.773 139.768 252.474 139.589 252.659C139.233 253.028 139.292 254.227 139.807 256.773C140.362 259.504 140.619 264.098 140.362 266.644C140.005 270.26 138.619 275.113 136.916 278.876C136.144 280.555 135.946 281.183 136.025 281.681C136.144 282.308 137.055 284.688 139.827 291.459C140.659 293.489 141.649 295.961 142.025 296.957C142.401 297.935 142.936 299.227 143.213 299.817C143.49 300.389 143.926 301.404 144.183 302.068C144.421 302.732 144.916 303.931 145.252 304.743C145.589 305.555 146.46 307.714 147.173 309.54C149.371 315.112 149.648 315.5 152.123 316.57C153.925 317.345 153.944 317.363 154.34 318.341C154.538 318.876 155.766 322.178 157.033 325.684C158.3 329.189 159.825 333.285 160.399 334.817C160.973 336.33 161.607 337.99 161.785 338.507C162.538 340.592 164.656 345.961 165.131 346.994C165.389 347.603 165.765 348.488 165.943 348.986L166.26 349.853L164.518 352.031C163.547 353.248 162.28 354.872 161.686 355.647L160.617 357.086L160.36 356.274C158.221 349.392 154.736 339.632 151.925 332.695C151.568 331.828 151.153 330.758 150.974 330.296C150.242 328.378 148.975 325.297 148.341 323.894C147.965 323.064 147.648 322.252 147.648 322.086C147.648 321.902 147.43 321.293 147.173 320.721C146.618 319.559 145.648 317.197 142.599 309.725C141.431 306.883 139.827 302.972 139.035 301.053C138.243 299.116 137.213 296.588 136.738 295.426C135.768 292.954 131.768 283.692 131.353 282.935C131.036 282.363 129.887 279.577 128.501 276.053C128.006 274.78 127.492 273.489 127.353 273.194C127.214 272.88 127.036 272.437 126.957 272.179C126.878 271.921 126.442 270.795 125.967 269.688C125.234 267.899 123.056 261.662 122.245 258.95L121.948 257.991L122.799 256.275C123.254 255.334 123.908 254.135 124.264 253.637C125.195 252.253 125.413 251.902 127.412 248.803C130.204 244.43 134.659 238.729 138.382 234.781C142.936 229.947 151.608 222.05 154.835 219.818C155.627 219.264 156.835 218.342 157.548 217.77C158.597 216.903 162.518 214.172 165.171 212.475C167.389 211.036 174.814 207.253 179.249 205.298C187.604 201.589 200.633 198.194 212.691 196.534C221.601 195.335 240.292 194.412 255.855 194.431C265.161 194.449 266.012 194.486 276.051 195.242C285.456 195.944 296.544 195.962 302.088 195.261C305.177 194.855 311.394 193.656 315.453 192.659C318.146 191.995 324.026 190.132 326.264 189.228C327.175 188.859 328.462 188.379 329.115 188.139C331.234 187.401 334.778 185.851 339.213 183.73C342.381 182.217 345.133 180.704 349.212 178.213C355.271 174.523 356.32 173.822 360.003 170.962C361.31 169.948 363.904 167.992 365.785 166.608C369.923 163.527 371.725 162.069 375.031 159.099C377.407 156.94 377.585 156.811 377.843 157.143C378.001 157.328 378.12 157.586 378.12 157.697ZM421.046 169.228C421.64 170.501 422.373 172.162 422.67 172.918C422.987 173.674 423.62 175.169 424.115 176.239C425.066 178.305 426.67 181.903 428.749 186.571C429.442 188.139 430.828 191.331 431.798 193.674C432.768 195.999 433.936 198.637 434.352 199.504C434.788 200.372 435.144 201.22 435.144 201.386C435.144 201.534 435.263 201.903 435.421 202.198C435.877 203.047 436.134 203.674 440.49 214.338C442.411 219.061 443.698 222.106 444.767 224.486C445.123 225.298 445.915 227.198 446.489 228.729C447.875 232.272 448.945 234.928 451.024 239.984C451.954 242.216 452.905 244.615 453.162 245.334C453.419 246.035 454.508 248.692 455.597 251.238C456.686 253.766 458.171 257.382 458.904 259.264C459.637 261.146 460.805 264.043 461.478 265.721C462.171 267.4 463.003 269.504 463.379 270.426C465.656 276.238 466.171 277.529 467.24 280.039C467.873 281.57 468.408 282.898 468.408 282.972C468.408 283.046 468.804 283.987 469.299 285.076C470.586 287.935 472.566 293.009 472.566 293.415C472.566 293.987 469.002 300.112 466.289 304.19C460.983 312.197 457.043 316.92 450.885 322.64C446.371 326.846 439.619 331.865 434.55 334.798C433.52 335.389 431.758 336.403 430.649 337.049C427.679 338.765 416.77 343.765 415.978 343.765C415.879 343.765 415.146 344.042 414.334 344.392C409.681 346.403 401.286 348.341 394.316 349.023C385.604 349.872 374.853 349.355 363.171 347.529C360.241 347.086 357.112 346.625 356.241 346.551C354.32 346.348 343.272 344.817 340.104 344.318C332.798 343.156 325.492 342.75 315.156 342.898C306.345 343.045 303.296 343.23 297.277 344.06C289.297 345.149 285.832 345.831 277.041 348.101C272.15 349.374 263.577 352.012 262.052 352.732C261.538 352.972 260.429 353.433 259.577 353.746C257.182 354.614 248.034 359.06 244.648 360.979C239.243 364.042 231.758 369.3 226.056 374.041C222.67 376.846 214.849 384.115 212.077 387.03C205.345 394.115 199.247 403.709 197.009 410.683C196.712 411.624 196.396 412.399 196.316 412.399C196.237 412.399 196.099 412.178 196.039 411.882C195.96 411.606 195.505 410.517 195.029 409.447C192.218 403.229 191.584 401.846 191.01 400.591C190.654 399.835 190.06 398.432 189.703 397.491C189.327 396.55 188.852 395.462 188.634 395.074C187.525 393.045 176.318 366.569 171.903 355.573C171.725 355.112 171.448 354.484 171.309 354.189C171.17 353.876 170.913 353.267 170.755 352.805C170.596 352.344 170.22 351.385 169.923 350.684C169.626 349.964 169.19 348.802 168.933 348.101C168.695 347.381 168.26 346.348 168.002 345.794C167.725 345.241 167.25 344.079 166.953 343.211C166.656 342.344 166.339 341.551 166.26 341.459C166.042 341.182 163.884 335.223 163.884 334.891C163.884 334.743 163.706 334.282 163.488 333.894C163.27 333.488 162.498 331.459 161.765 329.374C161.053 327.289 160.043 324.559 159.528 323.285C157.845 319.171 151.568 301.145 150.717 298.009C150.539 297.345 149.628 294.522 148.697 291.736C146.856 286.183 146.559 284.651 147.133 283.544C147.311 283.194 147.45 282.806 147.45 282.677C147.45 282.548 147.806 281.755 148.242 280.924C148.777 279.873 149.133 279.411 149.311 279.485C149.489 279.559 149.628 279.356 149.727 278.876C149.885 278.009 151.291 275.574 154.222 271.072C154.717 270.316 155.509 269.061 155.984 268.304C156.875 266.884 159.686 262.936 161.785 260.186C165.607 255.168 173.566 247.604 181.209 241.718C182.595 240.648 187.525 237.161 188.733 236.386C189.446 235.925 190.753 235.058 192.455 233.914C196.198 231.368 199.088 229.707 202.316 228.176C204.197 227.29 206.038 226.349 206.414 226.054C207.84 224.965 215.344 221.663 219.898 220.132C220.809 219.818 222.512 219.209 223.66 218.766C226.016 217.881 232.451 215.777 234.986 215.076C237.342 214.412 246.509 212.53 250.608 211.866C258.469 210.593 262.726 210.316 274.447 210.353C282.031 210.353 285.614 210.464 292.366 210.833C296.999 211.091 301.019 211.331 301.296 211.386C303.474 211.755 316.918 212.401 322.601 212.401C328.422 212.401 331.194 212.216 336.738 211.478C342.599 210.685 346.876 209.855 352.38 208.453C358.973 206.755 360.201 206.423 363.349 205.408C368.794 203.674 376.952 200.076 380.298 197.936C381.328 197.29 382.793 196.386 383.545 195.962C386 194.578 391.742 190.316 395.881 186.792C402.494 181.202 409.84 174.745 414.354 170.575L419.403 165.925L419.68 166.424C419.839 166.7 420.452 167.955 421.046 169.228ZM361.983 188.471C364.319 190.169 366.973 191.442 370.358 192.475C373.309 193.397 375.19 193.748 377.922 193.877C379.07 193.933 380.14 194.025 380.298 194.062C380.734 194.209 376.338 196.811 373.665 198.01C367.428 200.777 365.507 201.552 362.498 202.512C355.251 204.836 346.4 206.921 339.015 208.065C331.451 209.264 329.848 209.357 319.809 209.338C312.028 209.32 310.523 209.264 305.672 208.84C302.682 208.563 300.207 208.324 300.167 208.287C300.128 208.25 301.098 208.157 302.326 208.102C306.86 207.844 312.8 206.589 320.482 204.246C328.66 201.755 336.401 198.397 342.579 194.671C343.232 194.283 344.222 193.674 344.777 193.361C348.44 191.183 350.657 189.615 356.142 185.224L357.231 184.357L358.617 185.704C359.389 186.423 360.894 187.678 361.983 188.471ZM208.83 210.242C208.83 210.279 208.216 211.515 207.464 212.973C205.979 215.888 205.345 217.401 203.959 221.515L203.029 224.246L202.019 224.855C201.464 225.187 199.979 226.017 198.732 226.7C190.99 230.962 179.427 239.043 172.378 245.113C167.052 249.707 162.874 253.932 159.726 257.954C155.984 262.733 154.578 264.817 148.163 274.946C147.569 275.906 146.935 276.902 146.777 277.16C146.222 278.028 145.272 280.26 145.054 281.238C144.916 281.791 144.599 282.511 144.322 282.843C143.866 283.397 143.846 283.544 143.965 284.78C144.044 285.5 144.262 286.902 144.48 287.861C144.856 289.614 148.301 300.61 150.994 308.784C152.4 312.99 152.578 313.691 152.202 313.691C151.905 313.691 151.707 313.212 150.143 308.747C149.331 306.404 148.361 303.839 147.985 303.046C147.608 302.252 147.113 301.016 146.876 300.315C146.618 299.596 146.163 298.433 145.826 297.732C145.49 297.013 144.836 295.481 144.361 294.319C143.886 293.157 143.015 290.998 142.401 289.522C141.767 288.046 141.035 286.219 140.718 285.463C140.421 284.707 139.926 283.47 139.629 282.732C139.094 281.441 139.075 281.349 139.391 280.869C139.886 280.094 141.431 276.127 141.985 274.19C142.916 270.943 143.688 266.589 143.688 264.467C143.688 262.124 143.371 258.821 142.975 256.773C142.401 253.932 142.401 253.821 142.955 252.954C143.233 252.511 144.163 251.367 145.034 250.408C146.757 248.489 154.855 240.98 157.053 239.246C157.825 238.655 159.013 237.641 159.726 237.032C162.478 234.596 168.814 230.021 173.883 226.81C175.843 225.556 177.665 224.338 177.962 224.098C178.239 223.858 178.516 223.655 178.595 223.655C178.655 223.655 179.546 223.194 180.556 222.622C182.615 221.46 188.06 218.766 193.247 216.349C200.098 213.139 208.83 209.726 208.83 210.242Z" fill="black"/>
<path d="M376.041 144.468C375.724 144.671 373.744 146.35 371.685 148.213C369.606 150.077 366.537 152.771 364.854 154.191C359.29 158.878 358.954 159.283 359.904 160.095C360.28 160.409 360.34 160.409 361.132 160.114C362.359 159.689 364.517 158.121 368.735 154.579C373.883 150.261 377.17 147.07 377.882 145.667C378.219 145.022 378.199 145.022 377.665 144.579C376.991 144.044 376.813 144.044 376.041 144.468Z" fill="black"/>
<path d="M350.598 165.077C349.054 165.87 347.826 166.94 347.826 167.512C347.826 168.084 348.638 168.564 349.39 168.398C350.222 168.232 352.162 167.032 352.934 166.202C353.39 165.704 353.568 165.354 353.528 165.021C353.469 164.579 353.37 164.523 352.677 164.468C352.083 164.449 351.568 164.597 350.598 165.077Z" fill="black"/>
<path d="M340.975 171.313C340.203 171.627 337.075 173.084 334.045 174.505C331.016 175.944 327.67 177.457 326.64 177.863C323.69 179.025 316.978 180.944 310.701 182.42C307.553 183.158 304.523 183.933 303.969 184.117C303.098 184.412 302.979 184.523 302.92 185.04C302.86 185.593 302.9 185.63 303.613 185.759C306.365 186.239 320.066 183.379 326.937 180.87C329.828 179.818 336.718 176.608 339.134 175.169C341.807 173.601 342.896 172.77 343.371 171.903C343.767 171.239 343.767 171.221 343.391 170.962C342.836 170.593 342.559 170.63 340.975 171.313Z" fill="black"/>
<path d="M414.849 183.601C414.631 183.693 413.384 184.708 412.077 185.851C408.117 189.339 405.365 191.571 399.504 196.017C398.791 196.552 396.831 198.028 395.148 199.32C388.772 204.135 375.11 211.848 368.715 214.228C367.626 214.633 365.983 215.298 365.032 215.704C364.102 216.109 362.636 216.681 361.765 216.977C360.914 217.29 359.33 217.825 358.261 218.194C354.38 219.523 346.024 221.442 340.896 222.18C335.233 223.01 325.432 223.102 314.76 222.475C306.503 221.977 301.019 221.811 290.01 221.7C277.595 221.571 270.111 221.829 259.32 222.751C247.103 223.785 239.263 225.168 228.927 228.084C222.136 230.002 219.284 231.054 213.087 233.951C204.177 238.139 200.474 240.334 193.01 245.906C185.189 251.755 176.219 260.002 171.269 265.906C165.904 272.327 162.161 277.659 158.934 283.507C157.37 286.386 157.013 287.695 157.35 289.596C157.825 292.363 163.151 307.142 165.607 312.474C166.22 313.802 167.25 316.182 167.884 317.751C168.537 319.319 169.586 321.773 170.22 323.193C170.854 324.614 171.824 326.939 172.378 328.359C172.913 329.78 173.962 332.344 174.675 334.079C176.002 337.234 177.447 340.776 178.16 342.658C178.378 343.212 178.675 343.913 178.833 344.226C178.991 344.521 179.387 345.444 179.704 346.256C180.021 347.068 180.674 348.599 181.11 349.669C181.565 350.739 182.278 352.473 182.694 353.544C183.11 354.614 183.862 356.551 184.357 357.879C184.872 359.189 185.407 360.444 185.545 360.647C185.684 360.85 185.961 361.514 186.139 362.123C186.337 362.732 187.387 365.462 188.476 368.211C190.891 374.244 192.079 377.602 194.059 383.894C194.911 386.532 195.722 389.041 195.881 389.484C196.257 390.407 197.623 392.104 198.019 392.104C198.376 392.104 199.227 391.163 199.762 390.185C200.375 389.041 202.316 386.385 204.593 383.617C208.196 379.171 218.869 368.728 224.432 364.171C238.708 352.51 255.598 343.193 273.675 337.031C277.496 335.739 280.882 334.78 285.456 333.747C292.089 332.234 295.336 331.736 304.266 330.868C309.79 330.315 321.868 330.499 328.719 331.219C331.709 331.551 346.816 333.839 354.162 335.094C358.201 335.776 365.587 336.754 368.121 336.92C372.616 337.234 379.862 337.344 382.872 337.141C386.06 336.939 388.119 336.625 394.316 335.389C399.207 334.411 399.761 334.282 401.484 333.728C402.197 333.488 403.108 333.249 403.504 333.175C404.355 333.027 409.107 331.459 412.869 330.075C414.295 329.559 417.859 328.009 420.789 326.607C428.432 323.009 431.936 320.979 439.005 316.09C447.46 310.241 449.578 308.618 451.479 306.478C452.132 305.758 453.122 304.651 453.697 304.061C455.241 302.4 460.488 294.873 460.488 294.282C460.488 293.932 459.577 291.459 458.369 288.507C457.162 285.537 456.627 284.079 456.152 282.419C455.934 281.699 455.459 280.371 455.043 279.467C454.647 278.544 453.855 276.607 453.261 275.131C452.667 273.655 451.637 271.164 450.964 269.596C450.311 268.028 449.638 266.349 449.499 265.888C449.36 265.426 449.024 264.633 448.747 264.135C448.489 263.637 447.796 262.068 447.222 260.648C446.648 259.227 445.915 257.437 445.598 256.681C445.262 255.925 444.47 253.932 443.856 252.253C443.222 250.574 442.351 248.286 441.916 247.179C441.48 246.054 440.351 243.157 439.421 240.722C438.47 238.286 437.342 235.371 436.906 234.264C435.817 231.534 432.412 222.844 430.055 216.829C429.006 214.135 427.798 211.073 427.382 210.003C426.551 207.973 425.323 204.781 423.581 200.132C423.007 198.6 421.68 195.169 420.631 192.475C419.601 189.781 418.651 187.217 418.512 186.756C418.156 185.519 417.641 184.671 416.829 184.025C416.116 183.435 415.601 183.324 414.849 183.601ZM415.938 187.696C416.057 188.102 417.047 190.796 418.136 193.637C419.225 196.497 420.829 200.704 421.68 202.992C423.442 207.696 428.531 221.036 430.63 226.423C431.382 228.397 433.025 232.641 434.233 235.833C435.461 239.024 436.57 241.81 436.688 242.032C436.906 242.419 437.065 242.825 439.757 250.039C440.569 252.216 441.836 255.408 442.569 257.142C443.302 258.858 444.49 261.773 445.242 263.6C445.975 265.426 447.064 268.083 447.677 269.504C449.558 273.932 451.578 279.098 453.261 283.803C454.152 286.293 455.023 288.618 455.201 288.969C455.38 289.319 455.875 290.647 456.33 291.884L457.122 294.171L456.152 295.389C455.617 296.072 454.766 297.289 454.251 298.101C453.736 298.913 452.905 300.112 452.41 300.777C451.202 302.363 444.707 308.489 442.965 309.688C442.213 310.204 440.035 311.699 438.154 313.009C435.045 315.168 430.432 318.101 426.571 320.389C424.492 321.625 413.681 326.607 411.384 327.381C410.354 327.75 408.612 328.341 407.523 328.728C406.434 329.116 404.434 329.725 403.068 330.112C401.702 330.481 400.415 330.868 400.197 330.979C399.583 331.293 396.89 331.865 390.931 332.972C384.218 334.226 381.209 334.448 374.259 334.282C368.953 334.153 365.686 333.931 363.468 333.525C362.656 333.396 360.953 333.138 359.706 332.972C358.459 332.824 356.498 332.529 355.35 332.326C354.202 332.123 350.816 331.588 347.826 331.127C344.836 330.666 342.044 330.186 341.629 330.094C340.896 329.909 337.906 329.485 330.798 328.544C325.412 327.824 321.67 327.658 312.582 327.769C305.395 327.843 303.83 327.916 300.009 328.341C293.772 329.023 289.772 329.725 283.258 331.219C279.991 331.994 270.962 334.78 268.824 335.684C268.111 335.979 266.765 336.514 265.814 336.846C264.884 337.197 262.686 338.082 260.963 338.839C259.241 339.595 256.984 340.592 255.954 341.034C254.172 341.809 247.44 345.223 245.777 346.182C245.361 346.422 242.431 348.23 239.243 350.204C227.917 357.215 221.185 362.639 210.711 373.193C203.939 380.019 201.643 382.584 199.425 385.794C198.989 386.421 198.593 386.938 198.534 386.938C198.475 386.938 197.643 384.503 196.673 381.532C195.01 376.422 190.218 363.507 189.406 361.957C189.208 361.551 189.03 361.071 189.03 360.887C189.03 360.702 188.872 360.241 188.654 359.853C188.456 359.484 187.921 358.174 187.446 356.957C186.991 355.739 186.416 354.411 186.199 354.005C185.981 353.599 185.644 352.732 185.466 352.068C185.268 351.403 184.615 349.743 184.021 348.378C183.427 347.012 182.041 343.691 180.952 340.998C179.863 338.304 178.437 334.817 177.784 333.249C176.299 329.706 175.645 328.083 174.457 325.131C173.447 322.548 170.636 316.053 169.329 313.23C168.359 311.109 167.23 308.433 166.062 305.389C165.607 304.227 164.953 302.603 164.636 301.791C162.736 297.05 159.924 288.876 159.924 288.064C159.924 287.529 161.884 283.71 162.538 282.954C162.815 282.659 163.349 281.865 163.745 281.164C166.418 276.589 172.18 269.024 176.318 264.67C180.615 260.131 189.268 252.29 192.594 249.891C193.525 249.227 194.851 248.212 195.564 247.622C196.277 247.05 198.019 245.814 199.425 244.873C200.851 243.932 202.296 242.917 202.652 242.641C203.009 242.345 203.385 242.106 203.484 242.106C203.603 242.106 204.375 241.7 205.226 241.22C208.79 239.135 218.473 234.541 221.403 233.526C222.175 233.268 223.64 232.751 224.67 232.401C231.065 230.168 242.233 227.659 250.806 226.534C264.963 224.652 294.425 223.858 309.81 224.947C311.057 225.039 314.087 225.242 316.542 225.427C321.947 225.814 334.639 225.87 337.53 225.537C342.381 224.965 343.925 224.707 348.816 223.674C354.261 222.512 361.25 220.464 364.636 219.061C365.567 218.674 367.012 218.102 367.824 217.825C368.636 217.53 371.883 216.109 375.011 214.67C379.546 212.567 381.585 211.515 385.05 209.412C393.94 204.043 393.643 204.228 397.999 200.851C399.326 199.837 401.939 197.862 403.82 196.46C407.226 193.951 412.057 189.984 414.156 187.973C414.75 187.401 415.344 186.94 415.483 186.94C415.621 186.94 415.819 187.272 415.938 187.696Z" fill="black"/>
<path d="M392.475 212.881C391.168 213.859 388.673 215.648 386.931 216.847C385.189 218.047 383.327 219.338 382.793 219.707C379.526 221.977 369.309 227.179 364.438 229.024C361.112 230.316 360.082 230.667 358.993 230.925C358.36 231.091 356.657 231.571 355.251 232.032C352.439 232.917 347.192 234.172 344.361 234.615C339.609 235.371 331.392 235.464 326.937 234.836C324.363 234.467 322.046 234.467 321.314 234.818C320.799 235.058 320.74 235.205 320.601 236.294C320.423 237.844 320.561 238.047 322.997 239.707C324.026 240.427 325.828 241.829 326.996 242.844C329.135 244.67 333.471 248.969 334.124 249.873C334.303 250.15 334.857 250.851 335.352 251.441C337.926 254.596 342.48 262.087 343.866 265.426C344.183 266.146 344.836 267.677 345.331 268.821C347.331 273.452 349.549 281.22 350.479 286.939C351.489 293.046 351.608 304.762 350.697 309.669C350.123 312.732 349.43 316.219 349.093 317.529C348.262 320.942 349.351 321.865 355.251 322.714C359.31 323.304 362.102 323.488 369.408 323.599C375.566 323.691 376.655 323.655 380.397 323.286C385.149 322.824 385.03 322.843 390.158 321.717C393.881 320.905 400.534 318.95 404.949 317.363C407.582 316.422 414.532 313.156 416.354 312.031C420.65 309.337 425.165 305.537 428.174 302.086C429.323 300.758 429.857 300.297 430.352 300.186C431.342 299.946 431.501 299.43 431.026 297.806C430.511 296.072 430.234 294.374 430.075 291.828C429.956 290.039 429.996 289.504 430.471 287.419C431.144 284.467 431.917 282.456 433.204 280.371C434.847 277.677 435.916 276.533 439.163 273.95C439.896 273.36 440.629 272.64 440.787 272.345C441.361 271.349 441.262 270.943 439.104 265.722C436.985 260.556 435.54 256.847 435.54 256.533C435.54 256.367 435.322 255.814 435.065 255.297C434.273 253.747 433.461 251.607 430.095 242.29C425.244 228.84 422.967 222.973 422.353 222.346C422.175 222.161 421.621 221.774 421.126 221.515C420.314 221.073 420.037 221.017 417.641 220.98C411.364 220.833 405.385 218.951 401.504 215.907C400.593 215.187 399.049 213.822 398.039 212.862C395.623 210.519 395.643 210.519 392.475 212.881ZM396.158 215.371C397.029 216.349 398.791 217.752 401.048 219.283C403.365 220.851 407.483 222.493 411.384 223.397C412.216 223.582 413.998 223.729 416.374 223.785L420.076 223.895L421.561 227.973C422.373 230.205 424.254 235.371 425.739 239.43C427.224 243.489 428.867 248.01 429.402 249.486C429.917 250.962 430.788 253.286 431.342 254.652C431.877 256.017 432.946 258.766 433.718 260.74C435.283 264.799 437.183 269.412 437.639 270.242C438.035 270.98 437.857 271.33 436.748 272.031C435.085 273.102 432.134 276.035 431.144 277.622C429.184 280.777 427.501 285.149 427.026 288.36C426.808 289.965 427.046 294.78 427.442 296.754C427.66 297.788 427.66 297.843 427.145 298.415C426.868 298.747 426.135 299.614 425.541 300.352C423.066 303.396 418.235 307.345 413.938 309.835C409.543 312.382 402.355 315.26 395.485 317.197C388.376 319.227 384.575 319.928 377.328 320.536C373.804 320.832 365.309 320.85 361.587 320.555C357.785 320.26 352.162 319.632 352.024 319.503C351.964 319.448 352.103 318.636 352.321 317.695C352.816 315.739 353.41 312.603 354.083 308.526C355.033 302.658 354.538 289.338 353.152 283.341C351.806 277.566 349.311 269.781 347.351 265.353C346.024 262.327 341.629 254.485 340.599 253.268C340.243 252.862 339.451 251.773 338.817 250.869C338.183 249.947 337.273 248.711 336.778 248.102C335.53 246.589 328.858 240.297 327.036 238.914L325.551 237.807L327.828 237.973C331.649 238.249 341.054 238.157 343.569 237.788C349.232 236.995 359.983 234.024 366.379 231.478C371.467 229.449 376.734 226.884 380.892 224.412C384.001 222.567 386.456 220.999 388 219.873C389.485 218.803 394.633 214.726 394.712 214.56C394.891 214.228 395.366 214.504 396.158 215.371Z" fill="black"/>
<path d="M394.257 219.449C393.703 219.744 393.564 219.966 393.564 220.611C393.564 221.755 395.366 224.006 397.583 225.648C401.484 228.526 406.414 230.187 412.532 230.667C414.829 230.851 415.285 230.833 416.136 230.574C417.383 230.187 417.621 229.818 417.166 228.988C416.75 228.213 416.314 228.102 411.661 227.456C407.543 226.903 405.761 226.478 403.543 225.501C401.108 224.449 399.603 223.434 397.425 221.349C395.346 219.375 394.91 219.098 394.257 219.449Z" fill="black"/>
<path d="M337.807 241.275C337.51 241.718 337.51 241.792 338.005 242.714C338.282 243.268 339.055 244.283 339.708 244.984C341.629 247.05 345.589 251.976 347.41 254.559C350.063 258.323 352.835 263.655 354.32 267.843C356.597 274.338 357.528 278.065 358.3 283.895C359.092 289.78 359.211 291.478 359.211 297.087C359.211 302.548 359.191 302.843 358.538 306.773C358.181 309.005 357.865 311.478 357.845 312.252C357.825 313.507 357.884 313.728 358.261 314.097L358.716 314.503L359.251 314.134C359.548 313.913 360.003 313.378 360.241 312.917C361.211 311.109 362.676 301.902 362.676 297.659C362.676 293.157 361.864 284.946 360.874 279.467C359.468 271.589 356.063 262.327 352.439 256.589C348.38 250.113 346.42 247.641 342.282 243.711C338.956 240.556 338.48 240.316 337.807 241.275Z" fill="black"/>
<path d="M398.87 248.212C397.821 248.36 397.247 248.692 395.247 250.316C393.742 251.533 393.069 252.216 392.495 253.065C391.049 255.242 390.99 259.485 392.396 262.087C393.465 264.061 395.841 266.201 398.039 267.142C399.484 267.751 402.474 267.954 403.82 267.511C406.177 266.736 409.008 264.485 410.275 262.345L411.028 261.091L410.948 258.286C410.83 254.707 410.533 254.08 407.642 251.257C405.939 249.615 404.454 248.655 403.226 248.397C402.019 248.139 399.959 248.046 398.87 248.212ZM403.009 251.441C404.058 251.902 406.414 254.172 407.127 255.39C407.642 256.275 407.721 256.626 407.78 258.286C407.86 260.057 407.84 260.205 407.305 261.109C406.157 263.083 403.464 264.799 401.543 264.799C399.623 264.799 396.494 263.009 395.603 261.423C395.148 260.574 394.554 258.175 394.554 257.087C394.554 255.426 395.92 253.323 397.722 252.253C398.237 251.939 398.831 251.515 399.029 251.312C399.365 250.962 399.563 250.925 400.831 251.017C401.603 251.072 402.593 251.257 403.009 251.441Z" fill="black"/>
<path d="M355.192 250.26C354.815 250.611 354.895 250.925 355.924 252.604C357.35 254.965 359.528 259.393 360.676 262.253C362.636 267.142 365.21 277.437 365.844 282.935C365.963 283.932 366.181 287.585 366.339 291.053C366.715 298.802 366.913 299.946 367.883 299.817C368.537 299.725 369.17 298.046 369.448 295.703C369.626 294.227 369.626 292.492 369.428 288.452C369.111 281.09 368.695 278.581 366.339 269.762C364.557 263.139 363.607 260.611 361.231 256.22C359.468 252.973 359.092 252.382 357.924 251.294C356.894 250.297 356.498 250.039 356.023 250.039C355.706 250.039 355.33 250.131 355.192 250.26Z" fill="black"/>
<path d="M427.521 269.393C425.521 270.519 423.323 273.84 421.72 278.083C420.254 282.013 419.7 285.574 419.7 291.146C419.7 294.504 419.799 294.946 420.67 295.684C420.947 295.924 421.225 295.98 421.581 295.906C422.492 295.684 422.67 294.909 422.868 290.297C422.967 287.991 423.145 285.648 423.244 285.094C423.977 281.183 425.284 277.179 426.551 274.947C426.927 274.282 427.937 273.028 428.808 272.124C430.511 270.389 430.729 269.836 429.956 269.338C429.362 268.95 428.254 268.969 427.521 269.393Z" fill="black"/>
<path d="M251.301 235.279C250.964 235.464 249.46 236.017 247.935 236.478C245.044 237.382 241.639 238.618 237.045 240.482C233.917 241.755 222.928 246.903 219.027 248.932C216.176 250.408 208.553 255.002 206.85 256.257C206.256 256.699 205.088 257.53 204.276 258.102C200.672 260.629 196.99 263.489 193.683 266.293C189.149 270.15 182.199 276.515 181.07 277.843C180.615 278.415 179.942 279.172 179.605 279.541C179.269 279.91 178.714 280.703 178.358 281.312C178.001 281.921 177.566 282.566 177.388 282.732C177.051 283.101 177.11 284.079 177.625 286.662C178.298 290.094 178.496 294.337 178.14 297.363C177.823 299.872 176.338 305.407 175.467 307.326C174.398 309.633 173.784 311.164 173.784 311.496C173.784 311.717 174.279 313.101 174.893 314.577C176.675 318.95 178.318 323.027 179.348 325.684C179.882 327.049 180.595 328.747 180.912 329.466C181.684 331.201 182.714 333.691 183.981 336.939C186.614 343.691 187.09 344.688 188.179 345.647C188.495 345.924 190.079 346.625 191.802 347.271C197.841 349.54 199.346 350.444 203.979 354.651C205.939 356.44 207.365 357.584 207.721 357.676C208.85 357.935 209.523 357.51 211.048 355.61C212.691 353.507 219.423 347.104 223.284 343.931C229.521 338.839 237.698 333.415 243.223 330.721C244.411 330.167 245.46 329.632 245.559 329.559C245.816 329.374 251.935 326.791 252.113 326.791C252.192 326.791 253.004 326.477 253.954 326.071C256.805 324.891 266.21 322.086 269.656 321.404C272.289 320.887 273.497 320.407 274.586 319.429C275.14 318.931 275.556 318.396 275.556 318.175C275.556 317.621 274.665 316.699 273.695 316.238C269.477 314.245 264.607 310.537 259.043 305.038C252.925 299.005 246.569 287.714 244.589 279.338C243.5 274.799 243.401 273.71 243.401 266.275C243.401 259.91 243.421 259.153 243.856 256.681C244.906 250.537 248.608 241.995 251.776 238.323C253.261 236.607 253.538 235.833 252.865 235.205C252.469 234.818 252.034 234.836 251.301 235.279ZM245.183 243.231C244.371 244.799 243.5 246.7 243.223 247.456C241.975 250.869 241.243 253.378 240.767 255.906C240.272 258.526 240.253 258.877 240.233 265.998C240.213 273.323 240.213 273.397 240.767 276.238C241.52 280.076 242.153 282.456 243.183 285.26C244.846 289.78 247.48 294.965 250.054 298.729C250.727 299.706 251.618 301.035 252.053 301.699C254.905 306.035 263.795 314.171 268.586 316.81C269.893 317.548 270.566 318.064 270.388 318.175C270.349 318.212 268.745 318.581 266.844 319.024C256.588 321.348 243.341 326.736 234.867 332.012C231.184 334.319 227.442 336.828 225.7 338.193C219.166 343.304 211.226 350.444 209.622 352.676C208.969 353.562 208.612 353.894 208.295 353.913C207.979 353.913 206.929 353.101 204.929 351.311C201.742 348.47 200.93 347.953 196.059 345.684C194.079 344.78 192.515 344.171 191.366 343.913L189.624 343.525L189.129 341.938C188.852 341.071 188.297 339.522 187.921 338.507C187.525 337.492 186.991 336.016 186.733 335.241C186.496 334.466 186.06 333.433 185.803 332.935C185.545 332.455 185.129 331.459 184.872 330.758C184.634 330.038 184.08 328.673 183.644 327.714C183.209 326.754 182.555 325.204 182.199 324.3C181.823 323.378 180.952 321.219 180.219 319.503C179.506 317.769 178.774 315.942 178.595 315.444C178.437 314.928 178.14 314.227 177.942 313.876C177.744 313.525 177.447 312.824 177.269 312.326L176.932 311.404L177.546 310.26C178.734 307.99 180.12 303.562 181.011 299.061C181.763 295.223 181.645 290.777 180.674 286.053L180.239 283.969L180.655 283.194C181.447 281.681 185.506 277.53 190.97 272.659C193.01 270.851 195.267 268.913 196 268.36C196.732 267.825 197.405 267.271 197.485 267.124C197.92 266.404 206.672 260.039 210.909 257.345C212.335 256.441 214.117 255.279 214.869 254.762C219.601 251.515 238.015 242.862 244.668 240.722C245.698 240.408 246.569 240.187 246.608 240.261C246.628 240.316 245.995 241.663 245.183 243.231Z" fill="black"/>
<path d="M235.243 251.644C232.986 253.766 231.897 266.109 233.105 276.238C233.481 279.504 234.61 284.946 235.382 287.29C235.699 288.231 235.956 289.171 235.956 289.356C235.956 289.651 237.104 292.732 238.174 295.242C238.411 295.795 239.282 297.585 240.134 299.208C242.49 303.765 245.797 307.843 250.608 312.086C252.746 313.987 253.776 314.614 254.726 314.614C255.875 314.614 256.093 313.655 255.221 312.437C254.905 312.031 253.459 310.5 251.994 309.061C247.836 304.983 246.945 303.987 245.321 301.607C242.609 297.658 240.688 293.36 238.55 286.57C237.738 284.042 237.104 280.887 236.451 276.33C235.976 273.065 235.916 271.995 235.897 267.013C235.857 261.22 236.035 258.969 236.768 255.223C237.203 252.991 237.243 251.866 236.906 251.552C236.55 251.22 235.639 251.275 235.243 251.644Z" fill="black"/>
<path d="M226.056 263.729C224.888 265.482 224.591 267.733 224.73 273.655C224.868 279.67 225.284 282.4 226.888 288.12C227.66 290.906 229.778 296.459 230.788 298.341C231.204 299.116 231.857 300.426 232.253 301.238C233.778 304.43 235.6 306.81 237.065 307.529C237.659 307.843 237.778 307.843 237.936 307.603C238.51 306.773 237.976 304.891 236.352 302.031C234.293 298.341 232.214 293.802 231.125 290.537C230.887 289.817 230.551 288.876 230.372 288.415C229.679 286.607 228.808 282.603 228.313 279.098C227.7 274.67 227.581 268.969 228.036 266.017C228.373 263.84 228.175 263.268 227.086 263.175C226.551 263.12 226.393 263.212 226.056 263.729Z" fill="black"/>
<path d="M184.555 282.161C184.219 282.53 184.179 282.769 184.278 285.076C184.318 286.459 184.357 289.541 184.357 291.921C184.357 296.109 184.337 296.349 183.704 299.116C183.347 300.684 182.753 303.064 182.377 304.411C181.585 307.234 181.565 307.658 182.12 308.175C182.555 308.581 183.11 308.526 183.763 307.991C184.793 307.179 186.119 303.212 187.248 297.677C187.644 295.795 187.664 295.131 187.585 291.219C187.505 286.662 187.109 284.079 186.298 282.511C185.882 281.718 185.129 281.552 184.555 282.161Z" fill="black"/>
<path d="M203.979 301.182C203.662 301.293 203.306 301.441 203.187 301.515C203.088 301.607 202.177 302.05 201.187 302.511C197.683 304.171 195.821 306.312 195.326 309.3C195.128 310.5 195.148 310.887 195.425 311.957C196.138 314.596 197.801 317.197 199.583 318.433C202.355 320.315 205.226 321.035 207.761 320.463C209.543 320.038 210.869 319.282 212.968 317.455C214.77 315.869 215.443 314.909 216.156 312.954C216.928 310.813 216.611 307.677 215.404 305.758C214.176 303.784 211.78 301.994 209.464 301.33C208.058 300.924 205.028 300.85 203.979 301.182ZM209.028 304.3C210.751 305.02 211.919 306.016 212.632 307.363C213.226 308.489 213.285 308.765 213.285 310.186C213.265 311.514 213.186 311.92 212.731 312.769C211.681 314.78 209.939 316.385 207.86 317.252C205.385 318.267 201.464 316.754 199.821 314.134C198.079 311.348 198.158 308.876 200.098 306.828C200.791 306.09 203.345 304.54 204.454 304.171C205.603 303.784 207.979 303.858 209.028 304.3Z" fill="black"/>
<path d="M192 337.086C191.267 337.418 191.089 337.787 191.287 338.525C191.445 339.097 192.277 339.485 194.039 339.817C196.752 340.333 198.019 341.108 201.84 344.54C204.355 346.828 205.385 347.64 205.741 347.64C206.236 347.64 207.246 346.717 207.246 346.274C207.246 345.444 203.207 341.256 200.712 339.503C198.989 338.285 196.95 337.363 195.267 337.031C193.465 336.68 192.831 336.68 192 337.086Z" fill="black"/>
<path d="M288.961 239.799C286.288 240.15 284.921 240.537 284.624 241.054C284.486 241.312 284.407 242.106 284.426 243.139C284.466 244.32 284.407 244.873 284.228 245.002C284.09 245.113 283.377 245.371 282.644 245.593C280.922 246.128 279.793 246.829 278.209 248.434C275.239 251.404 273.418 254.246 272.566 257.235C272.032 259.116 271.933 262.788 272.368 264.43C272.903 266.478 274.823 269.43 276.764 271.257C279.437 273.747 287.04 276.81 291.475 277.197C292.03 277.253 292.089 277.345 292.822 279.375C293.237 280.537 293.851 282.493 294.188 283.71C295.099 287.05 297.534 297.326 297.435 297.419C297.079 297.751 294.326 295.205 293.099 293.433C291.792 291.533 291.495 291.422 288.169 291.681C285.377 291.902 283.634 292.363 282.961 293.046C281.892 294.153 283.377 299.061 285.654 301.884C287.139 303.729 289.099 305.629 290.228 306.312C290.842 306.681 292.307 307.345 293.495 307.769C295.356 308.47 295.91 308.599 297.633 308.692L299.613 308.802L300.167 310.74C300.464 311.791 300.92 312.99 301.157 313.415L301.593 314.153L303.375 314.208C305.81 314.282 308.206 313.95 309.473 313.341C310.82 312.714 311.018 312.197 310.741 309.946C310.523 308.083 310.562 307.991 311.948 307.511C315.156 306.385 318.047 304.577 320.898 301.902C323.373 299.577 324.125 298.452 325.096 295.592C325.511 294.356 325.551 293.876 325.551 290.814L325.531 287.4L324.68 285.002C323.096 280.574 321.888 278.618 319.373 276.404C317.314 274.596 315.71 273.6 312.542 272.198C308.959 270.574 306.484 269.817 303.217 269.319C302.266 269.172 301.969 268.747 301.395 266.699C301.138 265.795 300.623 264.043 300.247 262.77C299.237 259.375 297.851 253.914 297.989 253.803C298.227 253.581 299.455 254.117 300.425 254.873C301.732 255.888 302.682 256.958 303.692 258.545C304.939 260.556 305.414 260.629 308.464 259.172C309.632 258.618 311.097 257.973 311.731 257.77C313.295 257.216 313.77 256.718 313.77 255.685C313.77 253.545 311.81 250.814 307.988 247.659C306.444 246.368 305.731 245.925 304.187 245.279C301.93 244.338 299.375 243.785 297.395 243.766H295.95L295.594 243.065C295.376 242.696 295.059 241.94 294.841 241.404C294.307 239.984 293.871 239.67 292.247 239.596C291.515 239.559 290.03 239.652 288.961 239.799ZM292.426 243.36C292.604 243.951 292.94 244.652 293.178 244.91C293.831 245.703 295.455 246.312 297.732 246.644C300.247 247.013 302.425 247.622 303.85 248.397C305.83 249.467 310.424 253.969 310.384 254.799C310.384 255.187 306.662 256.939 306.226 256.773C306.068 256.7 305.414 255.98 304.781 255.168C302.999 252.899 300.643 251.367 298.366 250.962C296.386 250.611 295.099 251.312 294.841 252.899C294.703 253.784 294.762 254.061 295.712 257.696C299.059 270.26 299.474 271.386 301.039 271.792C301.454 271.902 301.93 271.995 302.108 271.995C303.078 271.995 307.434 273.157 309.414 273.95C313.136 275.426 316.879 277.825 318.542 279.799C320.502 282.105 322.066 286.109 322.462 289.799C322.64 291.588 322.621 292.031 322.304 293.507C321.65 296.404 320.542 298.157 317.809 300.592C315.869 302.326 314.641 303.064 311.552 304.467C310.048 305.131 308.84 305.813 308.424 306.219L307.731 306.884L307.672 308.968L307.592 311.072L306.959 311.182C306.622 311.256 305.711 311.348 304.939 311.422L303.533 311.533L303.395 310.998C303.316 310.703 302.999 309.669 302.662 308.692C301.811 306.182 301.692 306.109 298.603 305.832C296.188 305.61 296.029 305.574 293.891 304.596C291.416 303.452 289.733 302.105 288.228 300.039C287.396 298.913 286.01 296.275 285.793 295.481C285.634 294.854 286.03 294.707 288.149 294.577L290.109 294.448L290.743 295.352C291.436 296.367 294.663 299.411 295.415 299.799C295.693 299.928 296.485 300.149 297.158 300.297C297.831 300.444 298.484 300.666 298.583 300.758C298.94 301.09 300.068 300.998 300.484 300.611C301.375 299.78 301.237 298.544 299.534 292.105C298.88 289.725 297.989 286.275 297.534 284.448C296.762 281.441 296.188 279.596 295.237 277.087C295.039 276.589 294.524 275.832 294.089 275.408C293.317 274.651 293.158 274.596 290.564 274.024C287.773 273.434 283.159 271.847 281.714 270.998C279.318 269.578 276.823 267.05 275.734 264.891C275.2 263.858 275.16 263.637 275.16 261.478C275.16 259.098 275.437 256.958 275.774 256.57C275.873 256.441 276.229 255.832 276.566 255.187C277.477 253.434 278.744 251.903 280.704 250.168C282.288 248.748 282.625 248.545 284.011 248.12C284.862 247.862 285.733 247.641 285.931 247.641C286.129 247.641 286.604 247.345 286.981 246.958L287.674 246.294L287.614 244.43L287.555 242.567L288.248 242.456C288.604 242.382 289.634 242.327 290.505 242.309L292.089 242.29L292.426 243.36Z" fill="black"/>
<path d="M286.446 252.161C282.07 254.375 280.011 259.467 282.031 263.231C282.842 264.725 284.466 266.607 285.753 267.511C287.278 268.581 288.446 269.135 290.228 269.596C291.02 269.799 291.752 270.039 291.871 270.15C292.208 270.463 293.158 270.352 293.574 269.965C294.406 269.19 294.01 266.718 291.495 256.441C290.703 253.231 289.574 251.515 288.268 251.515C287.971 251.515 287.159 251.81 286.446 252.161ZM287.99 254.965C288.089 255.15 288.327 256.091 288.525 257.05C288.703 258.009 289.258 260.537 289.733 262.659C290.208 264.781 290.584 266.533 290.545 266.57C290.505 266.607 289.911 266.386 289.238 266.072C287.773 265.389 286.189 264.006 285.139 262.474C284.426 261.478 284.367 261.275 284.367 260.094C284.367 258.452 285.199 256.718 286.545 255.482C287.575 254.559 287.733 254.504 287.99 254.965Z" fill="black"/>
<path d="M302.127 277.087C301.751 277.327 301.692 277.53 301.692 278.544C301.692 279.67 302.504 283.95 303.593 288.6C303.85 289.762 304.345 291.884 304.662 293.304C304.998 294.725 305.474 296.515 305.751 297.271C306.028 298.046 306.246 298.895 306.246 299.171C306.246 299.743 306.82 300.352 307.493 300.5C308.602 300.758 312.285 298.839 314.106 297.031C315.651 295.518 316.641 293.36 316.859 290.998C317.116 288.341 315.492 284.356 313.077 281.718C311.315 279.78 310.344 279.061 308.325 278.157C305.434 276.884 303.078 276.459 302.127 277.087ZM306.978 280.777C309.453 282.068 311.849 284.596 313.037 287.179C313.572 288.341 313.651 288.729 313.671 290.26C313.671 291.791 313.611 292.142 313.136 293.083C312.245 294.836 309.374 297.326 308.84 296.81C308.661 296.625 306.503 287.622 305.672 283.6C305.434 282.529 305.117 281.293 304.959 280.851C304.8 280.426 304.662 280.002 304.662 279.91C304.662 279.688 305.513 280.02 306.978 280.777Z" fill="black"/>
<path d="M249.123 215.907C245.381 216.368 239.045 217.622 235.54 218.563C232.036 219.523 221.264 223.139 215.661 225.261C211.8 226.718 206.117 229.338 204.019 230.611C202.613 231.478 202.039 232.198 202.237 232.862C202.514 233.858 204.078 233.526 208.731 231.405C214.196 228.914 218.631 227.198 227.145 224.264C233.798 221.958 240.114 220.279 243.876 219.781C246.628 219.43 251.638 218.471 253.202 218.01C254.588 217.604 254.766 217.493 254.766 217.106C254.766 216.552 254.113 215.962 253.36 215.814C252.053 215.593 251.578 215.593 249.123 215.907Z" fill="black"/>
<path d="M194.178 236.552C193.109 236.866 191.921 237.567 190.891 238.489C189.723 239.541 189.505 240.297 190.178 240.869C190.753 241.349 191.129 241.257 192.673 240.261C195.564 238.397 196.594 237.087 195.584 236.571C195.148 236.368 194.891 236.349 194.178 236.552Z" fill="black"/>
<path d="M183.585 243.452C181.942 244.061 179.665 245.703 175.309 249.43C170.893 253.194 166.498 257.696 162.557 262.474C158.32 267.622 156.023 270.906 154.083 274.614C151.826 278.932 151.509 280.629 152.915 280.961C153.786 281.164 154.321 280.574 155.548 278.083C157.607 273.895 160.419 269.596 163.171 266.367C165.112 264.116 167.765 260.998 168.775 259.799C169.705 258.674 178.081 250.925 181.961 247.567C184.694 245.224 185.585 244.061 185.07 243.508C184.773 243.157 184.417 243.157 183.585 243.452Z" fill="black"/>
<path d="M465.299 296.33C464.428 296.847 462.884 298.618 460.765 301.607C459.755 303.027 458.211 305.149 457.34 306.312C454.667 309.928 453.617 311.367 453.36 311.847C452.707 313.083 448.192 318.286 446.509 319.78C445.757 320.444 444.232 321.68 443.143 322.511C441.064 324.079 440.411 324.891 440.688 325.573C440.886 326.108 442.015 326.182 443.123 325.721C444.509 325.149 447.341 323.009 450.014 320.537C452.152 318.525 452.905 317.64 455.657 313.913C465.101 301.053 467.418 297.714 467.418 296.957C467.418 296.681 467.22 296.441 466.824 296.256C466.091 295.906 466.072 295.906 465.299 296.33Z" fill="black"/>
<path d="M430.471 330.094C428.907 331.164 428.095 332.308 428.451 332.953C428.927 333.802 429.798 333.839 430.966 333.064C431.877 332.437 432.966 330.998 432.966 330.389C432.966 329.429 431.679 329.263 430.471 330.094Z" fill="black"/>
<path d="M420.987 335.536C420.334 335.776 418.413 336.57 416.73 337.308C408.731 340.795 402.929 342.289 393.366 343.322C385.486 344.171 384.456 344.392 384.456 345.352C384.456 345.702 384.614 345.887 385.208 346.127C385.802 346.367 386.575 346.422 389.604 346.385C396.197 346.33 403.068 345.241 409.8 343.175C413.602 342.012 419.641 339.356 421.779 337.916C422.769 337.234 423.363 336.256 423.185 335.592C423.026 334.964 422.591 334.964 420.987 335.536Z" fill="black"/>
</svg>
